<svg width="300" height="281" viewBox="0 0 300 281" fill="none" xmlns="http://www.w3.org/2000/svg">
<g clip-path="url(#clip0_501_288)">
<path d="M299.581 275.454H179.979C179.868 275.453 179.762 275.399 179.684 275.301C179.606 275.204 179.562 275.073 179.562 274.936C179.562 274.798 179.606 274.667 179.684 274.57C179.762 274.473 179.868 274.418 179.979 274.417H299.581C299.692 274.417 299.799 274.472 299.877 274.569C299.956 274.666 300 274.798 300 274.936C300 275.073 299.956 275.205 299.877 275.302C299.799 275.399 299.692 275.454 299.581 275.454Z" fill="#3F3D56"/>
<path d="M243.131 212.627C249.537 212.627 254.73 206.198 254.73 198.268C254.73 190.337 249.537 183.908 243.131 183.908C236.726 183.908 231.533 190.337 231.533 198.268C231.533 206.198 236.726 212.627 243.131 212.627Z" fill="#2F2E41"/>
<path d="M243.367 213.896C248.134 213.896 251.999 209.111 251.999 203.208C251.999 197.306 248.134 192.521 243.367 192.521C238.599 192.521 234.734 197.306 234.734 203.208C234.734 209.111 238.599 213.896 243.367 213.896Z" fill="#A0616A"/>
<path d="M256.487 218.719C256.487 218.719 240.671 215.238 230.479 219.589L233.466 248.961L232.763 253.748L253.851 252.877L252.445 248.091L256.487 218.719Z" fill="#A0616A"/>
<path d="M245.496 250.414C241.855 250.36 238.219 250.075 234.601 249.559C233.858 249.458 233.173 249.015 232.681 248.319C232.189 247.622 231.926 246.723 231.944 245.797L232.2 232.061L232.23 232.008C235.286 226.528 233.797 222.526 232.652 220.371C232.411 219.916 232.282 219.383 232.283 218.838C232.107 218.536 232.067 219.014 232.176 218.673C232.23 218.504 232.318 218.354 232.431 218.237C232.543 218.12 232.678 218.04 232.822 218.004L234.567 217.572C234.776 217.52 234.993 217.565 235.178 217.697C235.363 217.829 235.503 218.04 235.571 218.291C236.157 220.456 238.442 227.425 243.678 227.423C248.052 227.422 249.684 219.76 249.782 217.989C249.798 217.715 249.897 217.458 250.06 217.271C250.222 217.083 250.436 216.979 250.658 216.979H252.837C252.975 216.975 253.112 217.009 253.238 217.079C253.364 217.15 253.475 217.254 253.564 217.385C253.672 217.552 253.738 217.754 253.754 217.968C253.769 218.181 253.733 218.395 253.649 218.582C251.162 224.243 254.797 233.201 254.834 233.291L254.857 233.347L253.832 246.529C253.77 247.302 253.513 248.032 253.099 248.615C252.684 249.199 252.133 249.607 251.521 249.782C249.935 250.244 247.792 250.414 245.496 250.414Z" fill="#CCCCCC"/>
<path d="M225.426 281C223.064 281 220.902 280.678 219.184 279.917C217.142 279.012 215.86 277.549 215.373 275.568C215.143 274.725 215.074 273.827 215.172 272.946C215.27 272.064 215.532 271.223 215.938 270.488C218.958 264.888 229.441 263.31 230.848 263.122L231.593 255.435C231.681 254.547 232.025 253.729 232.562 253.131C233.098 252.532 233.791 252.194 234.513 252.177L252.168 251.836C252.877 251.815 253.568 252.11 254.116 252.667C254.664 253.225 255.032 254.007 255.154 254.872L256.157 261.704L244.58 268.653L246.331 274.721L246.216 274.815C242.828 277.612 233.084 281 225.426 281Z" fill="#2F2E41"/>
<path d="M254.554 260.71C254.554 260.71 270.722 258.099 269.667 268.542C268.613 278.985 256.312 286.383 237.684 268.542L239.793 263.321C239.793 263.321 250.337 266.802 254.554 264.191V260.71Z" fill="#2F2E41"/>
<path d="M240.144 264.626C240.144 264.626 240.144 259.404 236.629 259.839C233.115 260.275 226.788 260.71 226.788 260.71C226.788 260.71 224.679 262.45 227.491 263.321C230.303 264.191 238.738 268.542 238.738 268.542L240.144 264.626Z" fill="#A0616A"/>
<path d="M246.119 263.756C246.119 263.756 246.119 258.534 249.634 258.969C253.148 259.404 259.475 259.839 259.475 259.839C259.475 259.839 261.584 261.58 258.772 262.45C255.96 263.32 247.525 267.672 247.525 267.672L246.119 263.756Z" fill="#A0616A"/>
<path d="M267.179 262.767L261.935 240.258C261.935 240.258 260.881 232.426 259.826 225.029C258.772 217.631 254.906 218.502 254.906 218.502L254.203 218.937V230.685L254.906 241.564L261.923 265.455C261.716 266.283 261.704 267.167 261.888 268.004C262.072 268.841 262.445 269.595 262.963 270.179C263.48 270.764 264.121 271.153 264.811 271.303C265.501 271.453 266.211 271.357 266.858 271.026C267.506 270.695 268.064 270.143 268.467 269.434C268.87 268.725 269.102 267.889 269.136 267.023C269.17 266.156 269.003 265.296 268.657 264.543C268.311 263.789 267.798 263.173 267.179 262.767Z" fill="#A0616A"/>
<path d="M231.709 219.372C231.709 219.372 227.843 218.502 226.788 225.899C225.734 233.296 224.679 241.129 224.679 241.129L219.435 263.637C218.817 264.044 218.305 264.659 217.959 265.413C217.614 266.166 217.448 267.025 217.482 267.891C217.516 268.756 217.748 269.592 218.151 270.3C218.554 271.008 219.111 271.56 219.758 271.891C220.405 272.222 221.114 272.318 221.804 272.168C222.493 272.018 223.134 271.629 223.651 271.045C224.168 270.462 224.541 269.708 224.725 268.872C224.909 268.036 224.898 267.153 224.692 266.325L231.709 242.434L232.412 231.556V220.78C232.412 220.488 232.346 220.201 232.222 219.952C232.098 219.704 231.92 219.503 231.709 219.372Z" fill="#A0616A"/>
<path d="M234.822 196.643C238.193 199.191 241.993 200.741 245.928 201.174L244.757 199.437C245.609 199.827 246.506 200.048 247.415 200.09C247.869 200.107 248.321 199.991 248.733 199.752C249.145 199.513 249.506 199.158 249.787 198.716C250.016 198.256 250.153 197.734 250.184 197.195C250.216 196.656 250.142 196.115 249.968 195.62C249.611 194.63 249.056 193.771 248.355 193.123C247.112 191.906 245.646 191.088 244.087 190.743C242.527 190.398 240.923 190.536 239.417 191.145C238.384 191.527 237.459 192.262 236.747 193.265C236.398 193.77 236.155 194.375 236.041 195.025C235.926 195.675 235.944 196.351 236.093 196.99" fill="#2F2E41"/>
<path d="M244.223 185.502C241.5 182.084 238.206 179.446 234.571 177.775C232.237 176.704 229.698 176.043 227.258 176.651C224.819 177.259 222.512 179.348 221.832 182.311C221.275 184.734 221.85 187.343 222.713 189.624C223.577 191.905 224.73 194.02 225.428 196.386C226.141 198.8 226.355 201.396 226.052 203.939C225.748 206.482 224.937 208.89 223.691 210.946C222.445 213.002 220.804 214.64 218.917 215.711C217.03 216.783 214.956 217.254 212.885 217.082C215.282 217.48 217.491 218.874 219.834 219.616C222.176 220.359 224.941 220.308 226.682 218.23C228.524 216.032 228.561 212.457 228.472 209.292C228.34 204.586 228.207 199.88 228.075 195.174C228.008 192.774 227.95 190.297 228.649 188.057C229.348 185.817 231.009 183.855 232.949 183.876C234.419 183.891 235.72 184.994 236.899 186.081C238.078 187.168 239.326 188.328 240.79 188.49C242.254 188.652 243.926 187.31 243.817 185.495" fill="#2F2E41"/>
<path d="M167.123 264.998H12.4771C9.16913 264.993 5.9977 263.364 3.6586 260.468C1.31949 257.572 0.00374053 253.646 0 249.55V15.4473C0.0037396 11.3519 1.31949 7.42546 3.6586 4.52953C5.9977 1.6336 9.16913 0.00462982 12.4771 0H167.123C170.431 0.00463901 173.603 1.63361 175.942 4.52954C178.281 7.42547 179.597 11.3519 179.6 15.4473V249.55C179.597 253.646 178.281 257.572 175.942 260.468C173.603 263.364 170.431 264.993 167.123 264.998Z" fill="#E6E6E6"/>
<path d="M162.554 254.554H17.0462C15.5087 254.552 14.0346 253.795 12.9474 252.449C11.8602 251.103 11.2487 249.278 11.2469 247.375V31.5474C11.2487 29.6439 11.8602 27.8189 12.9474 26.4729C14.0346 25.127 15.5087 24.3698 17.0462 24.3677H162.554C164.092 24.3698 165.566 25.127 166.653 26.4729C167.74 27.8189 168.352 29.6439 168.353 31.5474V247.375C168.352 249.278 167.74 251.103 166.653 252.449C165.566 253.795 164.092 254.552 162.554 254.554Z" fill="white"/>
<path d="M116.417 101.154C114.053 94.148 110.381 88.304 105.052 84.4303C99.4527 80.3605 93.0609 76.9716 86.6213 75.7491C80.1751 74.57 73.6026 75.0254 67.3029 77.0877C64.2662 78.0615 60.9185 79.1925 58.3573 81.524C55.9089 83.7527 54.2317 87.4191 52.8663 90.7128C51.5581 93.8682 50.7426 97.343 51.4507 100.877C52.1031 104.134 53.9276 106.846 56.0142 108.887C57.8783 110.71 60.4853 113.124 62.9787 111.994C63.1204 111.93 63.2555 111.845 63.3814 111.742C67.6874 113.365 71.9685 111.005 76.3886 109.159C79.0749 108.036 81.7759 107.468 84.4737 108.869C87.1319 110.25 89.2954 112.962 90.8812 115.885C92.3898 118.666 93.3828 121.823 95.0379 124.488C95.861 125.86 96.9075 127.003 98.1097 127.844C99.3119 128.684 100.643 129.203 102.017 129.367C107.358 130.107 114.447 129.426 117.524 123.165C120.803 116.494 118.657 107.795 116.417 101.154ZM61.8981 90.9083C62.6903 91.0197 63.4825 91.1308 64.2748 91.2419C62.7654 91.5783 61.3533 92.398 60.179 93.6194C59.7324 94.0861 59.3182 94.5984 58.9408 95.1509C58.9516 95.1062 58.958 95.0635 58.9696 95.0183C59.2026 94.1203 59.583 93.2917 60.087 92.5844C60.5909 91.8772 61.2075 91.3065 61.8981 90.9083ZM88.4928 97.1713C88.6684 97.3347 88.8734 97.4429 89.0902 97.4868C89.1156 97.492 89.1408 97.4979 89.1662 97.5031C89.3135 97.6077 89.4612 97.7115 89.6094 97.8142C89.5925 97.843 89.58 97.8748 89.564 97.9044C89.2019 97.858 88.8395 97.8136 88.4772 97.7685C88.5028 97.5711 88.5081 97.3704 88.4928 97.1713ZM98.0792 111.206C97.9991 111.311 97.9286 111.426 97.8689 111.55C97.8332 111.486 97.7976 111.422 97.7621 111.359C97.8604 111.287 97.9675 111.235 98.0792 111.206ZM104.271 119.502C104.63 119.56 104.989 119.619 105.348 119.677C105.281 119.822 105.231 119.977 105.201 120.14C104.947 120.15 104.691 120.155 104.434 120.156L104.271 119.502ZM109.47 115.719C109.615 115.688 109.759 115.657 109.904 115.627C110.131 115.581 110.347 115.475 110.537 115.315C110.538 115.347 110.54 115.378 110.541 115.41C110.544 115.517 110.552 115.651 110.563 115.803C110.528 115.88 110.492 115.956 110.454 116.032C110.126 115.927 109.798 115.823 109.47 115.719V115.719ZM91.0053 92.0771C90.8327 91.8992 90.6379 91.7573 90.4285 91.657C89.4118 91.1708 88.3704 90.7676 87.3111 90.45C87.1523 90.2654 86.9974 90.0759 86.8463 89.8815C87.7408 90.0999 88.625 90.3785 89.4951 90.7161C90.6107 91.1588 91.7051 91.6798 92.7729 92.2767C92.1832 92.1953 91.594 92.1287 91.0053 92.0771ZM100.952 92.9022C100.433 92.5006 99.9109 92.1064 99.3853 91.7196C99.924 92.0954 100.455 92.4894 100.979 92.9016L100.952 92.9022ZM111.677 98.9622C110.285 96.8542 108.746 94.9022 107.077 93.129C107.206 92.7625 107.27 92.3663 107.267 91.9666C109.016 94.0074 110.503 96.3664 111.677 98.9622V98.9622ZM91.6754 81.7126C91.4556 81.6497 91.2356 81.5863 91.0154 81.5248C88.9244 80.9405 86.7943 80.311 84.645 79.7769C84.7604 79.7938 84.8757 79.8074 84.9908 79.8256C87.2613 80.1979 89.499 80.8296 91.6754 81.7126Z" fill="#057672"/>
<path d="M89.8001 16.7528C92.1295 16.7528 94.0178 14.415 94.0178 11.5312C94.0178 8.64737 92.1295 6.30957 89.8001 6.30957C87.4708 6.30957 85.5825 8.64737 85.5825 11.5312C85.5825 14.415 87.4708 16.7528 89.8001 16.7528Z" fill="white"/>
<path d="M46.9063 216.877C46.9048 216.877 46.9032 216.877 46.9015 216.877C46.7464 216.878 46.5965 216.947 46.4787 217.072L42.3878 221.759V217.188C42.3878 217.147 42.3814 217.107 42.3688 217.069C42.3562 217.031 42.3377 216.997 42.3144 216.968C42.2912 216.939 42.2635 216.916 42.2331 216.901C42.2027 216.885 42.1701 216.877 42.1372 216.877H41.1243C41.0914 216.877 41.0588 216.885 41.0283 216.901C40.9979 216.916 40.9703 216.939 40.947 216.968C40.9237 216.997 40.9053 217.031 40.8927 217.069C40.8801 217.107 40.8736 217.147 40.8737 217.188V228.145C40.8736 228.185 40.8801 228.226 40.8927 228.263C40.9053 228.301 40.9237 228.335 40.947 228.364C40.9703 228.393 40.9979 228.416 41.0283 228.431C41.0588 228.447 41.0914 228.455 41.1243 228.455H42.1321C42.1987 228.455 42.2625 228.422 42.3095 228.364C42.3565 228.306 42.383 228.227 42.383 228.145V223.604L46.4737 228.266C46.592 228.39 46.742 228.456 46.8967 228.455C47.0727 228.458 47.2425 228.375 47.3688 228.223C47.495 228.071 47.5675 227.863 47.5701 227.646V217.711C47.5708 217.602 47.5541 217.495 47.5211 217.394C47.4881 217.293 47.4394 217.201 47.3777 217.124C47.3161 217.046 47.2427 216.985 47.1618 216.942C47.0809 216.9 46.9941 216.878 46.9063 216.877Z" fill="#057672"/>
<path d="M139.435 216.908L139.43 216.908H138.447C138.414 216.908 138.381 216.916 138.351 216.931C138.32 216.947 138.292 216.97 138.269 216.999C138.246 217.027 138.227 217.062 138.215 217.099C138.202 217.137 138.196 217.177 138.196 217.218V221.765L134.105 217.102C133.986 216.977 133.834 216.908 133.677 216.908V216.877C133.589 216.876 133.502 216.897 133.421 216.938C133.34 216.979 133.266 217.039 133.203 217.115C133.14 217.192 133.091 217.282 133.057 217.383C133.022 217.483 133.004 217.59 133.004 217.699C133.004 217.703 133.004 217.707 133.004 217.711V227.658C133.004 227.877 133.074 228.088 133.2 228.243C133.325 228.398 133.495 228.485 133.672 228.486L133.677 228.485C133.833 228.488 133.985 228.421 134.105 228.297L138.196 223.604V228.175C138.196 228.216 138.202 228.256 138.215 228.294C138.227 228.331 138.246 228.366 138.269 228.395C138.292 228.423 138.32 228.446 138.351 228.462C138.381 228.477 138.414 228.485 138.447 228.485H139.43C139.463 228.486 139.496 228.479 139.526 228.464C139.557 228.449 139.585 228.427 139.609 228.399C139.632 228.371 139.651 228.337 139.665 228.3C139.678 228.262 139.685 228.222 139.686 228.181V217.218C139.686 217.177 139.679 217.137 139.667 217.099C139.654 217.062 139.635 217.027 139.612 216.999C139.589 216.97 139.561 216.947 139.531 216.931C139.5 216.916 139.468 216.908 139.435 216.908Z" fill="#057672"/>
<path d="M88.6052 217.121H86.6042C86.0611 217.121 85.6208 217.666 85.6208 218.338V227.433C85.6208 228.105 86.0611 228.65 86.6042 228.65H88.6052C89.1483 228.65 89.5886 228.105 89.5886 227.433V218.338C89.5886 217.666 89.1483 217.121 88.6052 217.121Z" fill="#057672"/>
<path d="M93.9794 217.121H91.9634C91.7026 217.121 91.4525 217.249 91.2681 217.477C91.0837 217.706 90.9801 218.015 90.9801 218.338V227.433C90.9801 227.755 91.0837 228.065 91.2681 228.293C91.4525 228.522 91.7026 228.65 91.9634 228.65H93.9794C94.2402 228.65 94.4903 228.522 94.6747 228.293C94.8591 228.065 94.9627 227.755 94.9627 227.433V218.338C94.9627 218.015 94.8591 217.706 94.6747 217.477C94.4903 217.249 94.2402 217.121 93.9794 217.121Z" fill="#057672"/>
<path d="M148.636 204.307H31.9471C31.7087 204.306 31.4805 204.187 31.3124 203.978C31.1443 203.769 31.0499 203.485 31.0499 203.19C31.0499 202.895 31.1443 202.612 31.3124 202.403C31.4805 202.193 31.7087 202.075 31.9471 202.073H148.636C148.755 202.072 148.873 202.101 148.983 202.156C149.093 202.212 149.193 202.294 149.278 202.398C149.362 202.502 149.429 202.625 149.475 202.761C149.52 202.897 149.544 203.043 149.544 203.19C149.544 203.337 149.52 203.483 149.475 203.619C149.429 203.755 149.362 203.878 149.278 203.982C149.193 204.086 149.093 204.168 148.983 204.224C148.873 204.28 148.755 204.308 148.636 204.307Z" fill="#057672"/>
<path d="M66.63 206.742C66.0621 206.743 65.5066 206.536 65.0339 206.146C64.5611 205.757 64.1924 205.202 63.9741 204.553C63.7559 203.904 63.698 203.19 63.8079 202.5C63.9177 201.81 64.1903 201.176 64.5912 200.678C64.9921 200.18 65.5032 199.84 66.0601 199.702C66.6169 199.563 67.1943 199.633 67.7193 199.901C68.2444 200.169 68.6935 200.623 69.0098 201.207C69.3261 201.791 69.4955 202.478 69.4964 203.181V203.187C69.4964 204.129 69.1946 205.032 68.6572 205.699C68.1197 206.365 67.3907 206.741 66.63 206.742Z" fill="#CCCCCC"/>
<path d="M65.7773 204.897H31.4403C31.075 204.896 30.7249 204.716 30.4668 204.396C30.2087 204.076 30.0637 203.642 30.0637 203.19C30.0637 202.738 30.2087 202.304 30.4668 201.984C30.7249 201.664 31.075 201.484 31.4403 201.483H65.7773C65.9688 201.483 66.1524 201.578 66.2878 201.745C66.4232 201.913 66.4994 202.14 66.4996 202.377V204.003C66.4994 204.24 66.4232 204.467 66.2878 204.635C66.1524 204.802 65.9688 204.897 65.7773 204.897Z" fill="#CCCCCC"/>
<path d="M93.4931 155.684C91.5029 155.615 89.0261 155.529 87.119 153.804C86.5509 153.27 86.0841 152.587 85.7514 151.806C85.4187 151.024 85.228 150.162 85.1928 149.279C85.1583 148.652 85.2414 148.023 85.4357 147.442C85.63 146.862 85.9301 146.344 86.3126 145.931C87.309 144.889 88.764 144.643 90.3323 145.215L88.7076 130.515L89.9003 130.312L91.8104 147.594L90.8145 147.028C89.6597 146.372 88.0747 146.039 87.0896 147.069C86.8478 147.338 86.6594 147.673 86.5391 148.047C86.4188 148.421 86.3698 148.825 86.3959 149.226C86.425 149.883 86.5681 150.525 86.8154 151.107C87.0628 151.689 87.4085 152.199 87.8291 152.601C89.3132 153.943 91.2875 154.117 93.5269 154.194L93.4931 155.684Z" fill="#3F3D56"/>
<path d="M82.8094 131.782H76.3257V133.273H82.8094V131.782Z" fill="#3F3D56"/>
<path d="M103.275 131.782H96.7909V133.273H103.275V131.782Z" fill="#3F3D56"/>
<path d="M65.0613 111.202C59.8401 110.464 55.7964 104.271 55.3523 97.9869C54.8239 90.5109 58.3406 83.4104 63.1651 79.2152C68.2105 74.828 74.4966 72.9959 80.5787 72.5926C92.4434 71.8616 104.104 76.6198 113.292 85.9419C117.849 90.6281 122.106 96.5975 123.719 103.808C125.12 110.07 123.98 117.163 119.912 121.549C118.905 122.624 117.73 123.429 116.46 123.913C115.19 124.397 113.852 124.55 112.532 124.362C109.376 123.956 106.464 121.902 103.943 119.632C99.0388 115.218 95.0131 109.069 89.0388 106.762C84.6582 105.071 78.9735 106.559 76.2965 111.464C75.6891 112.587 75.2955 113.865 75.1453 115.204C75.09 115.489 75.1244 115.79 75.2414 116.045C75.3585 116.301 75.5496 116.491 75.7759 116.579C76.0068 116.656 76.2528 116.617 76.4607 116.471C76.6687 116.325 76.8216 116.083 76.8866 115.798C77.5893 109.621 83.7244 107.316 88.0296 108.727C94.3067 110.783 98.5205 117.718 103.671 122.124C106.378 124.441 109.458 126.293 112.779 126.625C115.642 126.903 118.483 125.823 120.726 123.603C125.126 119.301 126.809 111.903 125.836 105.243C124.709 97.5296 120.516 90.9189 115.915 85.8009C106.588 75.5348 94.4786 69.9966 82.0006 70.2899C75.6362 70.4709 68.9955 72.0975 63.5126 76.2621C58.1941 80.3018 54.0835 87.0602 53.5462 94.9161C53.0733 101.831 56.0699 109.063 61.2137 112.093C62.4265 112.804 63.7271 113.258 65.0613 113.437C66.2139 113.6 66.2045 111.363 65.0613 111.202L65.0613 111.202Z" fill="#3F3D56"/>
</g>
<defs>
<clipPath id="clip0_501_288">
<rect width="300" height="281" fill="white"/>
</clipPath>
</defs>
</svg>
