<svg width="344" height="273" viewBox="0 0 344 273" fill="none" xmlns="http://www.w3.org/2000/svg">
<g clip-path="url(#clip0_397_253)">
<path d="M0 247.446C0 247.746 0.231187 247.987 0.519077 247.987H343.481C343.769 247.987 344 247.746 344 247.446C344 247.146 343.769 246.906 343.481 246.906H0.519077C0.231187 246.906 0 247.146 0 247.446Z" fill="#3F3D56"/>
<path d="M188.456 94.4658L191.995 71.4257L168.108 61.2881L164.569 96.309L188.456 94.4658Z" fill="#A0616A"/>
<path d="M182.42 78.8321C195.873 78.8321 206.779 67.4713 206.779 53.457C206.779 39.4428 195.873 28.082 182.42 28.082C168.966 28.082 158.06 39.4428 158.06 53.457C158.06 67.4713 168.966 78.8321 182.42 78.8321Z" fill="#A0616A"/>
<path d="M180.476 19.3422C181.18 19.7708 182.125 19.1223 182.351 18.3054C182.577 17.4884 182.313 16.621 182.052 15.8155C181.614 14.4638 181.176 13.1121 180.738 11.7604C179.806 8.88439 178.816 5.9079 176.798 3.7189C173.751 0.414958 168.908 -0.425552 164.549 0.183367C158.951 0.965336 153.428 4.123 150.825 9.34462C148.222 14.5662 149.33 21.8523 154.033 25.11C147.33 33.1134 144.994 42.0329 145.363 52.6473C145.731 63.2617 156.836 73.0303 164.077 80.5078C165.694 79.4866 167.164 74.7011 166.275 72.9626C165.386 71.2241 166.66 69.21 165.558 67.6087C164.457 66.0073 163.536 68.5571 164.649 66.9649C165.352 65.9602 162.609 63.6487 163.654 63.0473C168.705 60.1387 170.385 53.5799 173.558 48.5573C177.384 42.4991 183.934 38.3965 190.865 37.7159C194.683 37.3409 198.715 38.02 201.845 40.329C204.974 42.638 207 46.7642 206.275 50.6869C208.154 48.699 209.09 45.7857 208.737 43.0199C208.384 40.2541 206.751 37.6965 204.438 36.289C205.844 31.4449 204.639 25.8728 201.376 22.1243C198.112 18.3757 184.872 19.0142 180.107 20.0007" fill="#2F2E41"/>
<path d="M179.736 37.8628C173.425 38.5725 168.868 44.2672 165.02 49.5262C162.802 52.5574 160.479 55.9049 160.535 59.7156C160.591 63.5684 163.064 66.873 164.246 70.5243C166.178 76.4924 164.295 83.5932 159.697 87.6825C164.24 88.5807 169.152 85.0317 169.936 80.2839C170.85 74.7568 166.828 69.4223 167.304 63.836C167.724 58.9143 171.447 55.1266 174.612 51.4467C177.777 47.7668 180.75 42.8836 179.294 38.1812" fill="#2F2E41"/>
<path d="M180.943 270.274C180.943 270.274 128.166 275.726 124.24 269.365C120.315 263.004 177.799 256.643 177.799 256.643L180.943 270.274Z" fill="#A0616A"/>
<path d="M147.292 168.343L146.202 174.373C149.172 178.939 149.456 183.766 147.729 188.789L207.921 189.244C207.274 182.45 206.566 175.173 209.044 168.496L147.292 168.343Z" fill="#A0616A"/>
<path d="M245.885 213.175L224.054 194.983C221.154 192.565 219.276 188.971 218.902 185.121L215.538 150.464L235.578 143.506L240.41 177.821L252.453 206.333L245.885 213.175Z" fill="#A0616A"/>
<path d="M162.341 92.2364L191.564 90.8733L222.533 106.239L209.884 169.024L145.766 174.022L137.042 104.504L162.341 92.2364Z" fill="#2E3E61"/>
<path d="M209.044 183.49C213.435 189.519 215.279 204.036 217.146 218.476C217.146 218.476 136.017 218.022 135.581 218.022C135.145 218.022 147.979 187.579 147.979 187.579L209.044 183.49Z" fill="#A7CAE3"/>
<path d="M211.694 214.625L217.146 218.476C217.146 218.476 294.35 213.024 287.807 238.468C281.264 263.913 260.764 268.002 260.764 268.002L177.89 273L177.018 258.915C177.018 258.915 97.1973 277.544 89.7823 239.377C82.3673 201.21 135.581 218.022 135.581 218.022L211.694 214.625Z" fill="#A7CAE3"/>
<path d="M179.118 244.829C179.118 244.829 180.943 234.833 194.029 238.923C207.114 243.012 214.529 248.464 214.529 248.464L183.124 256.643L179.118 244.829Z" fill="#A0616A"/>
<path d="M211.847 105.186C211.847 105.186 226.677 99.7334 232.347 117.454C238.017 135.174 236.709 149.714 236.709 149.714L214.9 156.984L211.847 105.186Z" fill="#2E3E61"/>
<path d="M110.154 215.941L105.396 207.208L115.675 180.551L120.507 146.232L140.548 153.191L137.143 188.266C136.795 191.85 135.047 195.195 132.347 197.446L110.154 215.941L110.154 215.941Z" fill="#A0616A"/>
<path d="M144.239 105.186C144.239 105.186 129.409 99.7334 123.739 117.454C118.069 135.174 119.377 149.714 119.377 149.714L141.186 156.984L144.239 105.186Z" fill="#2E3E61"/>
<path d="M252.193 217.187C257.975 217.187 262.661 209.965 262.661 201.057C262.661 192.149 257.975 184.927 252.193 184.927C246.412 184.927 241.725 192.149 241.725 201.057C241.725 209.965 246.412 217.187 252.193 217.187Z" fill="#A0616A"/>
<path d="M105.201 219.913C110.983 219.913 115.67 212.692 115.67 203.783C115.67 194.875 110.983 187.653 105.201 187.653C99.4198 187.653 94.733 194.875 94.733 203.783C94.733 212.692 99.4198 219.913 105.201 219.913Z" fill="#A0616A"/>
<path d="M145.177 230.744L183.124 242.103L190.539 255.734L176.359 258.915" fill="#A7CAE3"/>
</g>
<defs>
<clipPath id="clip0_397_253">
<rect width="344" height="273" fill="white"/>
</clipPath>
</defs>
</svg>
